<?xml version="1.0" encoding="utf-8"?>
<!-- Generator: Adobe Illustrator 22.0.1, SVG Export Plug-In . SVG Version: 6.00 Build 0)  -->
<svg version="1.1" id="Layer_1" xmlns="http://www.w3.org/2000/svg" xmlns:xlink="http://www.w3.org/1999/xlink" x="0px" y="0px"
	 viewBox="0 0 40 40" style="enable-background:new 0 0 40 40;" xml:space="preserve">
<style type="text/css">
	.st0{fill:#FFC9CE;}
</style>
<path class="st0" d="M20,36l-2.4-2.2c-3.1-2.8-5.6-5.2-7.5-7.2c-2-2-3.5-3.8-4.6-5.3s-1.9-3-2.4-4.2c-0.4-1.3-0.6-2.6-0.6-3.9
	c0-2.7,0.9-5,2.8-6.9s4.2-2.8,6.9-2.8c1.4,0,2.8,0.3,4.2,1C17.7,5,18.9,6,20,7.2C21.1,6,22.4,5,23.7,4.4c1.3-0.6,2.7-1,4.1-1
	c2.7,0,5,0.9,6.9,2.8c1.9,1.9,2.8,4.2,2.8,6.9c0,1.3-0.2,2.6-0.6,3.9c-0.4,1.3-1.2,2.7-2.4,4.2c-1.1,1.5-2.7,3.3-4.6,5.3
	c-2,2-4.5,4.4-7.5,7.2L20,36z"/>
</svg>
