<?xml version="1.0" encoding="utf-8"?>
<!-- Generator: Adobe Illustrator 22.0.1, SVG Export Plug-In . SVG Version: 6.00 Build 0)  -->
<svg version="1.1" id="Layer_1" xmlns="http://www.w3.org/2000/svg" xmlns:xlink="http://www.w3.org/1999/xlink" x="0px" y="0px"
	 viewBox="0 0 40 40" style="enable-background:new 0 0 40 40;" xml:space="preserve">
<style type="text/css">
	.st0{fill:#FFFFFF;}
</style>
<path class="st0" d="M20,36l-2.4-2.2c-3.1-2.8-5.6-5.2-7.5-7.2c-2-2-3.5-3.8-4.6-5.3s-1.9-3-2.4-4.2c-0.4-1.3-0.6-2.6-0.6-3.9
	c0-2.7,0.9-5,2.8-6.9s4.2-2.8,6.9-2.8c1.4,0,2.8,0.3,4.2,1C17.7,5,18.9,6,20,7.2C21.1,6,22.4,5,23.7,4.4c1.3-0.6,2.7-1,4.1-1
	c2.7,0,5,0.9,6.9,2.8c1.9,1.9,2.8,4.2,2.8,6.9c0,1.3-0.2,2.6-0.6,3.9c-0.4,1.3-1.2,2.7-2.4,4.2c-1.1,1.5-2.7,3.3-4.6,5.3
	c-2,2-4.5,4.4-7.5,7.2L20,36z M20,31.3c2.8-2.6,5.1-4.8,6.9-6.6c1.8-1.8,3.2-3.4,4.3-4.8c1.1-1.4,1.8-2.6,2.2-3.6s0.6-2.1,0.6-3.2
	c0-1.8-0.6-3.3-1.7-4.4c-1.2-1.2-2.7-1.8-4.5-1.8c-1.4,0-2.6,0.4-3.8,1.3c-1.2,0.8-2,1.9-2.5,3.2h-3.1C18,10.1,17.2,9,16,8.2
	c-1.2-0.9-2.5-1.3-3.8-1.3c-1.8,0-3.3,0.6-4.5,1.7C6.5,9.8,6,11.3,6,13.1c0,1,0.2,2.1,0.6,3.2s1.1,2.3,2.2,3.7s2.5,3,4.3,4.8
	C14.9,26.5,17.2,28.7,20,31.3z"/>
</svg>
