<?xml version="1.0" encoding="utf-8"?>
<!-- Generator: Adobe Illustrator 22.0.1, SVG Export Plug-In . SVG Version: 6.00 Build 0)  -->
<svg version="1.1" id="Layer_1" xmlns="http://www.w3.org/2000/svg" xmlns:xlink="http://www.w3.org/1999/xlink" x="0px" y="0px"
	 viewBox="0 0 40 40" style="enable-background:new 0 0 40 40;" xml:space="preserve">
<style type="text/css">
	.st0{fill:#FFFFFF;}
</style>
<path class="st0" d="M33.3,35.7L22.4,24.8c-0.9,0.7-1.9,1.2-3,1.6C18.2,26.8,17,27,15.7,27c-3.2,0-5.9-1.1-8.1-3.3s-3.3-4.9-3.3-8.1
	s1.1-5.9,3.3-8.1s4.9-3.3,8.1-3.3s5.9,1.1,8.1,3.3s3.3,4.9,3.3,8.1c0,1.2-0.2,2.4-0.5,3.5c-0.4,1.1-0.9,2.2-1.7,3.1l10.9,10.9
	C35.8,33.2,33.3,35.7,33.3,35.7z M15.7,23.5c2.2,0,4.1-0.8,5.6-2.3s2.3-3.4,2.3-5.6s-0.8-4.1-2.3-5.6s-3.4-2.3-5.6-2.3
	s-4.1,0.8-5.6,2.3s-2.3,3.4-2.3,5.6s0.8,4.1,2.3,5.6C11.6,22.8,13.4,23.5,15.7,23.5z"/>
</svg>
