<svg xmlns="http://www.w3.org/2000/svg" height="48" viewBox="0 -960 960 960" width="48"><path d="M217-64q-28.725 0-50.863-22.138Q144-108.275 144-137v-523q0-28.725 22.137-50.862Q188.275-733 217-733h107v-10q0-65 45.239-109t110.681-44q65.442 0 111.261 44T637-743v10h106q28.725 0 50.862 22.138Q816-688.725 816-660v523q0 28.725-22.138 50.862Q771.725-64 743-64H217Zm0-73h526v-523H637v83q0 15.75-10.95 26.375Q615.099-540 599.825-540q-14.85 0-25.338-10.625Q564-561.25 564-577v-83H397v83q0 15.75-10.95 26.375Q375.099-540 359.825-540q-14.85 0-25.338-10.625Q324-561.25 324-577v-83H217v523Zm180-596h167v-10q0-34-24.58-57-24.579-23-59.5-23Q445-823 421-800t-24 57v10ZM217-137v-523 523Z"/></svg>