<?xml version="1.0" encoding="utf-8"?>
<!-- Generator: Adobe Illustrator 22.0.1, SVG Export Plug-In . SVG Version: 6.00 Build 0)  -->
<svg version="1.1" id="Layer_1" xmlns="http://www.w3.org/2000/svg" xmlns:xlink="http://www.w3.org/1999/xlink" x="0px" y="0px"
	 viewBox="0 0 40 40" style="enable-background:new 0 0 40 40;" xml:space="preserve">
<style type="text/css">
	.st0{fill:#FFFFFF;}
</style>
<path class="st0" d="M11.4,37.2c-0.9,0-1.8-0.3-2.4-1c-0.7-0.7-1-1.5-1-2.4s0.3-1.8,1-2.4c0.7-0.7,1.5-1,2.4-1s1.8,0.3,2.4,1
	c0.6,0.7,1,1.5,1,2.4s-0.3,1.8-1,2.4S12.3,37.2,11.4,37.2z M28.7,37.2c-0.9,0-1.8-0.3-2.4-1c-0.7-0.7-1-1.5-1-2.4s0.3-1.8,1-2.4
	c0.7-0.7,1.5-1,2.4-1s1.8,0.3,2.4,1c0.6,0.7,1,1.5,1,2.4s-0.3,1.8-1,2.4C30.4,36.9,29.6,37.2,28.7,37.2z M9.8,9.4l4.3,8.8h12.1
	L31,9.4H9.8z M8.1,5.9h26.1c0.6,0,1.1,0.3,1.4,0.9c0.3,0.6,0.3,1.2,0,1.7l-6.3,11.2c-0.3,0.6-0.8,1.1-1.3,1.4
	c-0.6,0.4-1.2,0.5-1.8,0.5H13.3L11.4,25h20.8v3.5H11.1c-1.3,0-2.3-0.5-2.9-1.5s-0.6-2.1,0-3.2l2.4-4.5L4.4,6.1H0.9V2.6h5.7L8.1,5.9z
	 M14.1,18.2h12.1H14.1z"/>
</svg>
